<?xml version="1.0" encoding="UTF-8"?>
<svg xmlns="http://www.w3.org/2000/svg" xmlns:xlink="http://www.w3.org/1999/xlink" width="128px" height="127px" viewBox="0 0 127 127" version="1.1">
<defs>
<linearGradient id="linear0" gradientUnits="userSpaceOnUse" x1="0.12959" y1="0.12039" x2="0.79639" y2="0.78201" gradientTransform="matrix(93.898438,0,0,94.527344,0.0703125,0.0351562)">
<stop offset="0" style="stop-color:rgb(21.960784%,49.411765%,72.156863%);stop-opacity:1;"/>
<stop offset="1" style="stop-color:rgb(21.176471%,41.176471%,58.039216%);stop-opacity:1;"/>
</linearGradient>
<linearGradient id="linear1" gradientUnits="userSpaceOnUse" x1="0.19128" y1="0.20579" x2="0.90742" y2="0.88429" gradientTransform="matrix(93.898438,0,0,94.527344,32.855469,32.039062)">
<stop offset="0" style="stop-color:rgb(100%,87.843137%,32.156863%);stop-opacity:1;"/>
<stop offset="1" style="stop-color:rgb(100%,76.470588%,19.215686%);stop-opacity:1;"/>
</linearGradient>
</defs>
<g id="surface1">
<path style=" stroke:none;fill-rule:nonzero;fill:url(#linear0);" d="M 62.957031 0.0351562 C 30.796875 0.0351562 32.804688 14.039062 32.804688 14.039062 L 32.839844 28.546875 L 63.53125 28.546875 L 63.53125 32.902344 L 20.652344 32.902344 C 20.652344 32.902344 0.0703125 30.558594 0.0703125 63.136719 C 0.0703125 95.714844 18.035156 94.5625 18.035156 94.5625 L 28.753906 94.5625 L 28.753906 79.441406 C 28.753906 79.441406 28.175781 61.410156 46.429688 61.410156 L 76.867188 61.410156 C 76.867188 61.410156 93.96875 61.6875 93.96875 44.816406 L 93.96875 16.917969 C 93.96875 16.917969 96.566406 0.0351562 62.957031 0.0351562 Z M 46.035156 9.792969 C 47.5 9.789062 48.902344 10.375 49.941406 11.414062 C 50.976562 12.453125 51.554688 13.863281 51.554688 15.335938 C 51.554688 16.804688 50.976562 18.214844 49.941406 19.253906 C 48.902344 20.296875 47.5 20.878906 46.035156 20.878906 C 44.570312 20.878906 43.164062 20.296875 42.128906 19.253906 C 41.09375 18.214844 40.511719 16.804688 40.511719 15.335938 C 40.511719 13.863281 41.09375 12.453125 42.128906 11.414062 C 43.164062 10.375 44.570312 9.789062 46.035156 9.792969 Z M 46.035156 9.792969 "/>
<path style=" stroke:none;fill-rule:nonzero;fill:url(#linear1);" d="M 63.871094 126.566406 C 96.027344 126.566406 94.019531 112.5625 94.019531 112.5625 L 93.984375 98.054688 L 63.296875 98.054688 L 63.296875 93.699219 L 106.175781 93.699219 C 106.175781 93.699219 126.753906 96.042969 126.753906 63.464844 C 126.753906 30.882812 108.792969 32.039062 108.792969 32.039062 L 98.070312 32.039062 L 98.070312 47.15625 C 98.070312 47.15625 98.648438 65.191406 80.398438 65.191406 L 49.957031 65.191406 C 49.957031 65.191406 32.855469 64.914062 32.855469 81.785156 L 32.855469 109.683594 C 32.855469 109.683594 30.261719 126.566406 63.867188 126.566406 Z M 80.792969 116.808594 C 79.328125 116.8125 77.921875 116.226562 76.886719 115.1875 C 75.851562 114.148438 75.269531 112.738281 75.269531 111.265625 C 75.269531 109.796875 75.851562 108.386719 76.886719 107.34375 C 77.921875 106.304688 79.328125 105.722656 80.792969 105.722656 C 82.257812 105.722656 83.660156 106.304688 84.695312 107.34375 C 85.734375 108.386719 86.3125 109.796875 86.3125 111.265625 C 86.3125 112.738281 85.734375 114.148438 84.695312 115.1875 C 83.660156 116.226562 82.257812 116.8125 80.792969 116.808594 Z M 80.792969 116.808594 "/>
</g>
</svg>
